<svg xmlns="http://www.w3.org/2000/svg" width="152" height="34" viewBox="0 0 152 34">
    <g fill="#4169FB" fill-rule="evenodd">
        <path d="M21.075 3.4l13.374 22.561H7.7z" style="mix-blend-mode:multiply"/>
        <path d="M9.266 10.33l9.267 15.631H0z" style="mix-blend-mode:multiply"/>
        <g>
            <path d="M40.563 23.11l1.076-1.276s2.231 2.51 6.176 2.51c2.43 0 4.582-1.275 4.582-3.745 0-5.06-10.958-3.626-10.958-10.122 0-3.546 2.989-5.379 6.376-5.379 4.064 0 5.897 2.152 5.897 2.152l-.996 1.355s-1.634-1.873-5.02-1.873c-2.272 0-4.503 1.036-4.503 3.626 0 5.18 10.958 3.626 10.958 10.24 0 3.189-2.71 5.38-6.376 5.38-4.822 0-7.212-2.869-7.212-2.869zM58.5 18.207V5.576h1.673V17.61c0 3.467.438 6.734 4.901 6.734 4.981 0 8.17-4.383 8.17-9.045V5.576h1.673V25.5h-1.674v-3.507c0-.916.16-1.633.16-1.633h-.08c-.678 1.873-3.427 5.618-8.249 5.618-4.9 0-6.574-2.71-6.574-7.77zM81.059 25.5V5.576h1.673v3.786c0 .916-.159 1.634-.159 1.634h.08c.996-3.069 3.227-5.58 6.375-5.58.598 0 1.156.12 1.156.12V7.21s-.478-.08-.917-.08c-3.108 0-5.06 2.63-5.937 5.579-.438 1.395-.598 2.869-.598 4.184V25.5H81.06zm30.181-3.666zm-2 0l.917 1.395s-2.79 2.75-7.093 2.75c-5.618 0-10.28-4.065-10.28-10.401 0-6.734 4.582-10.48 9.682-10.48 5.42 0 8.13 4.264 8.13 9.085 0 .439-.08 1.076-.08 1.076h-15.98c0 5.778 3.906 9.085 8.528 9.085 3.825 0 6.175-2.509 6.176-2.51zm-14.584-8.129h14.186c-.2-4.861-3.108-7.053-6.416-7.053-3.666 0-7.053 2.391-7.77 7.053zm22.324 4.583V7.21h-2.63V5.696h2.63V.037h1.674v5.659h5.22V7.21h-5.22v10.958c0 5.26 3.148 5.937 4.742 5.937.557 0 .916-.08.916-.08v1.555s-.398.08-.996.08c-2.072 0-6.336-.758-6.336-7.372zm10.316 14.464l.757-1.434s1.116.956 2.47.956c1.913 0 3.109-1.713 3.906-3.586l1.434-3.308-8.248-19.804h1.793l6.575 15.9c.398.956.717 1.872.717 1.872h.08s.278-.916.677-1.873l6.575-15.899h1.793l-10.24 24.586c-.878 2.072-2.551 3.706-5.062 3.706-1.912 0-3.227-1.116-3.227-1.116z"/>
            <text font-family="MuseoSans-500, Museo Sans" font-size="5.313" letter-spacing=".1" transform="translate(40.5)">
                <tspan x="107.2" y="7.611">®</tspan>
            </text>
        </g>
    </g>
</svg>
