<svg xmlns="http://www.w3.org/2000/svg" width="30" height="31" viewBox="0 0 30 31">
    <path fill="#293A7B" fill-rule="evenodd" d="M24.785 17.8c1.797.509 3.164 1.544 4.102 3.106A6.985 6.985 0 0 1 30 24.715v1.465c0 1.25-.45 2.324-1.348 3.222-.898.899-1.972 1.348-3.222 1.348H4.57c-1.25 0-2.324-.45-3.222-1.348C.449 28.504 0 27.43 0 26.18v-1.465c0-1.367.371-2.656 1.113-3.867.938-1.524 2.305-2.54 4.102-3.047l1.23-.352c-1.328-1.836-1.992-3.886-1.992-6.152 0-1.914.469-3.682 1.406-5.303a10.339 10.339 0 0 1 3.838-3.838C11.318 1.22 13.086.75 15 .75c1.914 0 3.682.469 5.303 1.406 1.62.938 2.9 2.217 3.838 3.838.937 1.621 1.406 3.389 1.406 5.303 0 2.266-.664 4.316-1.992 6.152l1.23.352zM15 3.564c-1.406 0-2.695.351-3.867 1.054A8.08 8.08 0 0 0 8.32 7.43c-.703 1.172-1.054 2.46-1.054 3.867 0 1.406.351 2.695 1.054 3.867a8.08 8.08 0 0 0 2.813 2.813c1.172.703 2.46 1.054 3.867 1.054 1.406 0 2.695-.351 3.867-1.054a8.08 8.08 0 0 0 2.813-2.813c.703-1.172 1.054-2.46 1.054-3.867 0-1.406-.351-2.695-1.054-3.867a8.08 8.08 0 0 0-2.813-2.813c-1.172-.703-2.46-1.054-3.867-1.054zM27.187 26.18v-1.465c0-.977-.293-1.856-.878-2.637a4.285 4.285 0 0 0-2.286-1.582l-2.695-.762c-1.875 1.407-3.984 2.11-6.328 2.11-2.344 0-4.453-.703-6.328-2.11l-2.695.762c-.938.274-1.7.8-2.286 1.582a4.285 4.285 0 0 0-.879 2.637v1.465c0 .508.167.927.499 1.26.332.331.751.497 1.26.497H25.43c.507 0 .927-.166 1.26-.498.331-.332.497-.751.497-1.26z"/>
</svg>
